<mxfile host="Electron" modified="2025-05-04T00:00:00.000Z" agent="Mozilla/5.0 (Macintosh; Intel Mac OS X 10_15_7) AppleWebKit/537.36 (KHTML, like Gecko) draw.io/22.0.3 Chrome/114.0.5735.289 Electron/25.8.4 Safari/537.36" etag="abcdefghijklmnopqrstuvwxyz" version="22.0.3" type="device">
  <diagram id="project_management_flow" name="案件管理業務フロー">
    <mxGraphModel dx="1186" dy="775" grid="1" gridSize="10" guides="1" tooltips="1" connect="1" arrows="1" fold="1" page="1" pageScale="1" pageWidth="1169" pageHeight="827" math="0" shadow="0">
      <root>
        <mxCell id="0" />
        <mxCell id="1" parent="0" />
        <mxCell id="title" value="案件管理業務フロー" style="text;html=1;strokeColor=none;fillColor=none;align=center;verticalAlign=middle;whiteSpace=wrap;rounded=0;fontSize=24;fontStyle=1" vertex="1" parent="1">
          <mxGeometry x="400" y="20" width="300" height="40" as="geometry" />
        </mxCell>

        <!-- 営業担当者のスイムレーン -->
        <mxCell id="sales_lane" value="営業担当者" style="swimlane;childLayout=stackLayout;resizeParent=1;resizeParentMax=0;horizontal=1;startSize=30;horizontalStack=0;fillColor=#dae8fc;strokeColor=#6c8ebf;" vertex="1" parent="1">
          <mxGeometry x="40" y="80" width="1080" height="200" as="geometry" />
        </mxCell>
        <mxCell id="sales_process" value="" style="swimlane;startSize=30;horizontal=0;fillColor=#dae8fc;strokeColor=#6c8ebf;" vertex="1" parent="sales_lane">
          <mxGeometry y="30" width="1080" height="170" as="geometry" />
        </mxCell>

        <!-- 案件獲得フェーズ -->
        <mxCell id="lead_acquisition" value="案件情報獲得" style="rounded=1;whiteSpace=wrap;html=1;fillColor=#dae8fc;strokeColor=#6c8ebf;" vertex="1" parent="sales_process">
          <mxGeometry x="60" y="20" width="120" height="50" as="geometry" />
        </mxCell>
        <mxCell id="lead_register" value="案件情報登録" style="rounded=1;whiteSpace=wrap;html=1;fillColor=#dae8fc;strokeColor=#6c8ebf;" vertex="1" parent="sales_process">
          <mxGeometry x="240" y="20" width="120" height="50" as="geometry" />
        </mxCell>
        
        <!-- 案件分類フェーズ -->
        <mxCell id="lead_classify" value="案件分類・優先度付け" style="rounded=1;whiteSpace=wrap;html=1;fillColor=#dae8fc;strokeColor=#6c8ebf;" vertex="1" parent="sales_process">
          <mxGeometry x="420" y="20" width="120" height="50" as="geometry" />
        </mxCell>
        <mxCell id="lead_verification" value="案件精査" style="rhombus;whiteSpace=wrap;html=1;fillColor=#f5f5f5;strokeColor=#666666;fontColor=#333333;" vertex="1" parent="sales_process">
          <mxGeometry x="600" y="15" width="120" height="60" as="geometry" />
        </mxCell>
        
        <!-- 案件条件交渉フェーズ -->
        <mxCell id="condition_negotiation" value="案件条件交渉" style="rounded=1;whiteSpace=wrap;html=1;fillColor=#dae8fc;strokeColor=#6c8ebf;" vertex="1" parent="sales_process">
          <mxGeometry x="600" y="110" width="120" height="50" as="geometry" />
        </mxCell>
        <mxCell id="requirement_confirm" value="要件確定" style="rounded=1;whiteSpace=wrap;html=1;fillColor=#dae8fc;strokeColor=#6c8ebf;" vertex="1" parent="sales_process">
          <mxGeometry x="780" y="110" width="120" height="50" as="geometry" />
        </mxCell>
        <mxCell id="case_order" value="案件受注" style="rounded=1;whiteSpace=wrap;html=1;fillColor=#d5e8d4;strokeColor=#82b366;" vertex="1" parent="sales_process">
          <mxGeometry x="940" y="110" width="120" height="50" as="geometry" />
        </mxCell>
        <mxCell id="lead_discard" value="案件見送り" style="rounded=1;whiteSpace=wrap;html=1;fillColor=#f8cecc;strokeColor=#b85450;" vertex="1" parent="sales_process">
          <mxGeometry x="780" y="20" width="120" height="50" as="geometry" />
        </mxCell>

        <!-- フロー接続 -->
        <mxCell id="flow_1" value="" style="endArrow=classic;html=1;rounded=0;exitX=1;exitY=0.5;exitDx=0;exitDy=0;entryX=0;entryY=0.5;entryDx=0;entryDy=0;" edge="1" parent="sales_process" source="lead_acquisition" target="lead_register">
          <mxGeometry width="50" height="50" relative="1" as="geometry">
            <mxPoint x="510" y="280" as="sourcePoint" />
            <mxPoint x="560" y="230" as="targetPoint" />
          </mxGeometry>
        </mxCell>
        <mxCell id="flow_2" value="" style="endArrow=classic;html=1;rounded=0;exitX=1;exitY=0.5;exitDx=0;exitDy=0;entryX=0;entryY=0.5;entryDx=0;entryDy=0;" edge="1" parent="sales_process" source="lead_register" target="lead_classify">
          <mxGeometry width="50" height="50" relative="1" as="geometry">
            <mxPoint x="510" y="280" as="sourcePoint" />
            <mxPoint x="560" y="230" as="targetPoint" />
          </mxGeometry>
        </mxCell>
        <mxCell id="flow_3" value="" style="endArrow=classic;html=1;rounded=0;exitX=1;exitY=0.5;exitDx=0;exitDy=0;entryX=0;entryY=0.5;entryDx=0;entryDy=0;" edge="1" parent="sales_process" source="lead_classify" target="lead_verification">
          <mxGeometry width="50" height="50" relative="1" as="geometry">
            <mxPoint x="510" y="280" as="sourcePoint" />
            <mxPoint x="560" y="230" as="targetPoint" />
          </mxGeometry>
        </mxCell>
        <mxCell id="flow_4" value="見送り" style="endArrow=classic;html=1;rounded=0;exitX=1;exitY=0.5;exitDx=0;exitDy=0;entryX=0;entryY=0.5;entryDx=0;entryDy=0;" edge="1" parent="sales_process" source="lead_verification" target="lead_discard">
          <mxGeometry x="-0.1429" y="10" width="50" height="50" relative="1" as="geometry">
            <mxPoint x="510" y="280" as="sourcePoint" />
            <mxPoint x="560" y="230" as="targetPoint" />
            <mxPoint as="offset" />
          </mxGeometry>
        </mxCell>
        <mxCell id="flow_5" value="進める" style="endArrow=classic;html=1;rounded=0;exitX=0.5;exitY=1;exitDx=0;exitDy=0;entryX=0;entryY=0.5;entryDx=0;entryDy=0;" edge="1" parent="sales_process" source="lead_verification" target="condition_negotiation">
          <mxGeometry x="-0.2" y="20" width="50" height="50" relative="1" as="geometry">
            <mxPoint x="510" y="280" as="sourcePoint" />
            <mxPoint x="560" y="230" as="targetPoint" />
            <Array as="points">
              <mxPoint x="660" y="90" />
              <mxPoint x="580" y="90" />
              <mxPoint x="580" y="135" />
            </Array>
            <mxPoint as="offset" />
          </mxGeometry>
        </mxCell>
        <mxCell id="flow_6" value="" style="endArrow=classic;html=1;rounded=0;exitX=1;exitY=0.5;exitDx=0;exitDy=0;entryX=0;entryY=0.5;entryDx=0;entryDy=0;" edge="1" parent="sales_process" source="condition_negotiation" target="requirement_confirm">
          <mxGeometry width="50" height="50" relative="1" as="geometry">
            <mxPoint x="510" y="280" as="sourcePoint" />
            <mxPoint x="560" y="230" as="targetPoint" />
          </mxGeometry>
        </mxCell>
        <mxCell id="flow_7" value="" style="endArrow=classic;html=1;rounded=0;exitX=1;exitY=0.5;exitDx=0;exitDy=0;entryX=0;entryY=0.5;entryDx=0;entryDy=0;" edge="1" parent="sales_process" source="requirement_confirm" target="case_order">
          <mxGeometry width="50" height="50" relative="1" as="geometry">
            <mxPoint x="510" y="280" as="sourcePoint" />
            <mxPoint x="560" y="230" as="targetPoint" />
          </mxGeometry>
        </mxCell>

        <!-- 企業/クライアントのスイムレーン -->
        <mxCell id="client_lane" value="クライアント企業" style="swimlane;childLayout=stackLayout;resizeParent=1;resizeParentMax=0;horizontal=1;startSize=30;horizontalStack=0;fillColor=#fff2cc;strokeColor=#d6b656;" vertex="1" parent="1">
          <mxGeometry x="40" y="290" width="1080" height="160" as="geometry" />
        </mxCell>
        <mxCell id="client_process" value="" style="swimlane;startSize=30;horizontal=0;fillColor=#fff2cc;strokeColor=#d6b656;" vertex="1" parent="client_lane">
          <mxGeometry y="30" width="1080" height="130" as="geometry" />
        </mxCell>
        
        <!-- クライアント側のアクション -->
        <mxCell id="project_inquiry" value="案件問い合わせ" style="rounded=1;whiteSpace=wrap;html=1;fillColor=#fff2cc;strokeColor=#d6b656;" vertex="1" parent="client_process">
          <mxGeometry x="60" y="40" width="120" height="50" as="geometry" />
        </mxCell>
        <mxCell id="project_details" value="詳細情報提供" style="rounded=1;whiteSpace=wrap;html=1;fillColor=#fff2cc;strokeColor=#d6b656;" vertex="1" parent="client_process">
          <mxGeometry x="420" y="40" width="120" height="50" as="geometry" />
        </mxCell>
        <mxCell id="requirements_discussion" value="要件・条件協議" style="rounded=1;whiteSpace=wrap;html=1;fillColor=#fff2cc;strokeColor=#d6b656;" vertex="1" parent="client_process">
          <mxGeometry x="600" y="40" width="120" height="50" as="geometry" />
        </mxCell>
        <mxCell id="approval_order" value="発注承認" style="rounded=1;whiteSpace=wrap;html=1;fillColor=#fff2cc;strokeColor=#d6b656;" vertex="1" parent="client_process">
          <mxGeometry x="940" y="40" width="120" height="50" as="geometry" />
        </mxCell>

        <!-- クライアント側のフロー接続 -->
        <mxCell id="client_flow_1" value="" style="endArrow=classic;html=1;rounded=0;exitX=1;exitY=0.5;exitDx=0;exitDy=0;" edge="1" parent="client_process" source="project_inquiry">
          <mxGeometry width="50" height="50" relative="1" as="geometry">
            <mxPoint x="510" y="280" as="sourcePoint" />
            <mxPoint x="120" y="20" as="targetPoint" />
            <Array as="points">
              <mxPoint x="200" y="65" />
              <mxPoint x="200" y="-40" />
              <mxPoint x="120" y="-40" />
            </Array>
          </mxGeometry>
        </mxCell>
        <mxCell id="client_flow_2" value="" style="endArrow=classic;html=1;rounded=0;exitX=1;exitY=0.5;exitDx=0;exitDy=0;entryX=0.5;entryY=1;entryDx=0;entryDy=0;" edge="1" parent="client_process" source="project_details" target="lead_verification">
          <mxGeometry width="50" height="50" relative="1" as="geometry">
            <mxPoint x="510" y="280" as="sourcePoint" />
            <mxPoint x="560" y="230" as="targetPoint" />
            <Array as="points">
              <mxPoint x="560" y="65" />
              <mxPoint x="560" y="10" />
              <mxPoint x="660" y="10" />
            </Array>
          </mxGeometry>
        </mxCell>
        <mxCell id="client_flow_3" value="" style="endArrow=classic;html=1;rounded=0;exitX=0.5;exitY=0;exitDx=0;exitDy=0;entryX=0.5;entryY=1;entryDx=0;entryDy=0;" edge="1" parent="client_process" source="requirements_discussion" target="condition_negotiation">
          <mxGeometry width="50" height="50" relative="1" as="geometry">
            <mxPoint x="510" y="280" as="sourcePoint" />
            <mxPoint x="560" y="230" as="targetPoint" />
          </mxGeometry>
        </mxCell>
        <mxCell id="client_flow_4" value="" style="endArrow=classic;html=1;rounded=0;exitX=0.5;exitY=0;exitDx=0;exitDy=0;entryX=0.5;entryY=1;entryDx=0;entryDy=0;" edge="1" parent="client_process" source="approval_order" target="case_order">
          <mxGeometry width="50" height="50" relative="1" as="geometry">
            <mxPoint x="510" y="280" as="sourcePoint" />
            <mxPoint x="560" y="230" as="targetPoint" />
          </mxGeometry>
        </mxCell>
        
        <!-- 営業/クライアント間の接続 -->
        <mxCell id="inter_flow_1" value="" style="endArrow=classic;html=1;rounded=0;exitX=0.5;exitY=1;exitDx=0;exitDy=0;entryX=0;entryY=0.5;entryDx=0;entryDy=0;" edge="1" parent="1" source="lead_classify" target="project_details">
          <mxGeometry width="50" height="50" relative="1" as="geometry">
            <mxPoint x="550" y="410" as="sourcePoint" />
            <mxPoint x="600" y="360" as="targetPoint" />
            <Array as="points">
              <mxPoint x="520" y="240" />
              <mxPoint x="400" y="240" />
              <mxPoint x="400" y="365" />
            </Array>
          </mxGeometry>
        </mxCell>
        <mxCell id="inter_flow_2" value="" style="endArrow=classic;html=1;rounded=0;exitX=0.5;exitY=1;exitDx=0;exitDy=0;entryX=0.5;entryY=0;entryDx=0;entryDy=0;" edge="1" parent="1" source="condition_negotiation" target="requirements_discussion">
          <mxGeometry width="50" height="50" relative="1" as="geometry">
            <mxPoint x="550" y="410" as="sourcePoint" />
            <mxPoint x="600" y="360" as="targetPoint" />
          </mxGeometry>
        </mxCell>
        <mxCell id="inter_flow_3" value="" style="endArrow=classic;html=1;rounded=0;exitX=0.5;exitY=1;exitDx=0;exitDy=0;entryX=0.5;entryY=0;entryDx=0;entryDy=0;" edge="1" parent="1" source="case_order" target="approval_order">
          <mxGeometry width="50" height="50" relative="1" as="geometry">
            <mxPoint x="550" y="410" as="sourcePoint" />
            <mxPoint x="600" y="360" as="targetPoint" />
          </mxGeometry>
        </mxCell>
        
        <!-- 案件管理システムのスイムレーン -->
        <mxCell id="system_lane" value="案件管理システム" style="swimlane;childLayout=stackLayout;resizeParent=1;resizeParentMax=0;horizontal=1;startSize=30;horizontalStack=0;fillColor=#d5e8d4;strokeColor=#82b366;" vertex="1" parent="1">
          <mxGeometry x="40" y="460" width="1080" height="140" as="geometry" />
        </mxCell>
        <mxCell id="system_process" value="" style="swimlane;startSize=30;horizontal=0;fillColor=#d5e8d4;strokeColor=#82b366;" vertex="1" parent="system_lane">
          <mxGeometry y="30" width="1080" height="110" as="geometry" />
        </mxCell>
        
        <!-- システムのアクション -->
        <mxCell id="store_lead" value="案件情報格納" style="rounded=1;whiteSpace=wrap;html=1;fillColor=#d5e8d4;strokeColor=#82b366;" vertex="1" parent="system_process">
          <mxGeometry x="240" y="30" width="120" height="50" as="geometry" />
        </mxCell>
        <mxCell id="notification" value="関係者通知" style="rounded=1;whiteSpace=wrap;html=1;fillColor=#d5e8d4;strokeColor=#82b366;" vertex="1" parent="system_process">
          <mxGeometry x="420" y="30" width="120" height="50" as="geometry" />
        </mxCell>
        <mxCell id="update_status" value="案件ステータス更新" style="rounded=1;whiteSpace=wrap;html=1;fillColor=#d5e8d4;strokeColor=#82b366;" vertex="1" parent="system_process">
          <mxGeometry x="600" y="30" width="120" height="50" as="geometry" />
        </mxCell>
        <mxCell id="record_documents" value="関連文書登録" style="rounded=1;whiteSpace=wrap;html=1;fillColor=#d5e8d4;strokeColor=#82b366;" vertex="1" parent="system_process">
          <mxGeometry x="780" y="30" width="120" height="50" as="geometry" />
        </mxCell>
        <mxCell id="project_creation" value="正式案件化" style="rounded=1;whiteSpace=wrap;html=1;fillColor=#d5e8d4;strokeColor=#82b366;" vertex="1" parent="system_process">
          <mxGeometry x="940" y="30" width="120" height="50" as="geometry" />
        </mxCell>
        
        <!-- システムフローの接続 -->
        <mxCell id="system_flow_1" value="" style="endArrow=classic;html=1;rounded=0;exitX=0.5;exitY=1;exitDx=0;exitDy=0;entryX=0.5;entryY=0;entryDx=0;entryDy=0;" edge="1" parent="1" source="lead_register" target="store_lead">
          <mxGeometry width="50" height="50" relative="1" as="geometry">
            <mxPoint x="550" y="410" as="sourcePoint" />
            <mxPoint x="600" y="360" as="targetPoint" />
          </mxGeometry>
        </mxCell>
        <mxCell id="system_flow_2" value="" style="endArrow=classic;html=1;rounded=0;exitX=1;exitY=0.5;exitDx=0;exitDy=0;entryX=0;entryY=0.5;entryDx=0;entryDy=0;" edge="1" parent="system_process" source="store_lead" target="notification">
          <mxGeometry width="50" height="50" relative="1" as="geometry">
            <mxPoint x="510" y="280" as="sourcePoint" />
            <mxPoint x="560" y="230" as="targetPoint" />
          </mxGeometry>
        </mxCell>
        <mxCell id="system_flow_3" value="" style="endArrow=classic;html=1;rounded=0;exitX=0.5;exitY=0;exitDx=0;exitDy=0;entryX=0.5;entryY=1;entryDx=0;entryDy=0;" edge="1" parent="1" source="notification" target="lead_classify">
          <mxGeometry width="50" height="50" relative="1" as="geometry">
            <mxPoint x="550" y="410" as="sourcePoint" />
            <mxPoint x="600" y="360" as="targetPoint" />
            <Array as="points">
              <mxPoint x="520" y="440" />
              <mxPoint x="480" y="440" />
              <mxPoint x="480" y="180" />
            </Array>
          </mxGeometry>
        </mxCell>
        <mxCell id="system_flow_4" value="" style="endArrow=classic;html=1;rounded=0;exitX=0.5;exitY=1;exitDx=0;exitDy=0;entryX=0.5;entryY=0;entryDx=0;entryDy=0;" edge="1" parent="1" source="lead_discard" target="update_status">
          <mxGeometry width="50" height="50" relative="1" as="geometry">
            <mxPoint x="550" y="410" as="sourcePoint" />
            <mxPoint x="600" y="360" as="targetPoint" />
            <Array as="points">
              <mxPoint x="840" y="260" />
              <mxPoint x="700" y="260" />
            </Array>
          </mxGeometry>
        </mxCell>
        <mxCell id="system_flow_5" value="" style="endArrow=classic;html=1;rounded=0;exitX=0.5;exitY=1;exitDx=0;exitDy=0;entryX=0.5;entryY=0;entryDx=0;entryDy=0;" edge="1" parent="1" source="requirement_confirm" target="record_documents">
          <mxGeometry width="50" height="50" relative="1" as="geometry">
            <mxPoint x="550" y="410" as="sourcePoint" />
            <mxPoint x="600" y="360" as="targetPoint" />
            <Array as="points">
              <mxPoint x="840" y="400" />
              <mxPoint x="840" y="440" />
            </Array>
          </mxGeometry>
        </mxCell>
        <mxCell id="system_flow_6" value="" style="endArrow=classic;html=1;rounded=0;exitX=0.5;exitY=1;exitDx=0;exitDy=0;entryX=0.5;entryY=0;entryDx=0;entryDy=0;" edge="1" parent="1" source="approval_order" target="project_creation">
          <mxGeometry width="50" height="50" relative="1" as="geometry">
            <mxPoint x="550" y="410" as="sourcePoint" />
            <mxPoint x="600" y="360" as="targetPoint" />
          </mxGeometry>
        </mxCell>

        <!-- タイムライン/マイルストーン -->
        <mxCell id="timeline" value="案件管理タイムライン" style="swimlane;childLayout=stackLayout;resizeParent=1;resizeParentMax=0;horizontal=1;startSize=30;horizontalStack=0;fillColor=#f5f5f5;strokeColor=#666666;fontColor=#333333;" vertex="1" parent="1">
          <mxGeometry x="40" y="610" width="1080" height="130" as="geometry" />
        </mxCell>
        <mxCell id="timeline_lane" value="" style="swimlane;startSize=30;horizontal=0;fillColor=#f5f5f5;strokeColor=#666666;fontColor=#333333;" vertex="1" parent="timeline">
          <mxGeometry y="30" width="1080" height="100" as="geometry" />
        </mxCell>
        
        <!-- タイムラインマイルストーン -->
        <mxCell id="milestone_1" value="案件情報入手" style="shape=hexagon;perimeter=hexagonPerimeter2;whiteSpace=wrap;html=1;fixedSize=1;fillColor=#f5f5f5;strokeColor=#666666;fontColor=#333333;" vertex="1" parent="timeline_lane">
          <mxGeometry x="60" y="30" width="120" height="40" as="geometry" />
        </mxCell>
        <mxCell id="milestone_2" value="案件登録完了" style="shape=hexagon;perimeter=hexagonPerimeter2;whiteSpace=wrap;html=1;fixedSize=1;fillColor=#f5f5f5;strokeColor=#666666;fontColor=#333333;" vertex="1" parent="timeline_lane">
          <mxGeometry x="240" y="30" width="120" height="40" as="geometry" />
        </mxCell>
        <mxCell id="milestone_3" value="営業判断" style="shape=hexagon;perimeter=hexagonPerimeter2;whiteSpace=wrap;html=1;fixedSize=1;fillColor=#f5f5f5;strokeColor=#666666;fontColor=#333333;" vertex="1" parent="timeline_lane">
          <mxGeometry x="420" y="30" width="120" height="40" as="geometry" />
        </mxCell>
        <mxCell id="milestone_4" value="要件確定" style="shape=hexagon;perimeter=hexagonPerimeter2;whiteSpace=wrap;html=1;fixedSize=1;fillColor=#f5f5f5;strokeColor=#666666;fontColor=#333333;" vertex="1" parent="timeline_lane">
          <mxGeometry x="600" y="30" width="120" height="40" as="geometry" />
        </mxCell>
        <mxCell id="milestone_5" value="契約準備" style="shape=hexagon;perimeter=hexagonPerimeter2;whiteSpace=wrap;html=1;fixedSize=1;fillColor=#f5f5f5;strokeColor=#666666;fontColor=#333333;" vertex="1" parent="timeline_lane">
          <mxGeometry x="780" y="30" width="120" height="40" as="geometry" />
        </mxCell>
        <mxCell id="milestone_6" value="案件開始" style="shape=hexagon;perimeter=hexagonPerimeter2;whiteSpace=wrap;html=1;fixedSize=1;fillColor=#f5f5f5;strokeColor=#666666;fontColor=#333333;" vertex="1" parent="timeline_lane">
          <mxGeometry x="940" y="30" width="120" height="40" as="geometry" />
        </mxCell>
        
        <!-- タイムライン接続 -->
        <mxCell id="timeline_flow_1" value="" style="endArrow=classic;html=1;rounded=0;exitX=1;exitY=0.5;exitDx=0;exitDy=0;entryX=0;entryY=0.5;entryDx=0;entryDy=0;dashed=1;" edge="1" parent="timeline_lane" source="milestone_1" target="milestone_2">
          <mxGeometry width="50" height="50" relative="1" as="geometry">
            <mxPoint x="510" y="280" as="sourcePoint" />
            <mxPoint x="560" y="230" as="targetPoint" />
          </mxGeometry>
        </mxCell>
        <mxCell id="timeline_flow_2" value="" style="endArrow=classic;html=1;rounded=0;exitX=1;exitY=0.5;exitDx=0;exitDy=0;entryX=0;entryY=0.5;entryDx=0;entryDy=0;dashed=1;" edge="1" parent="timeline_lane" source="milestone_2" target="milestone_3">
          <mxGeometry width="50" height="50" relative="1" as="geometry">
            <mxPoint x="510" y="280" as="sourcePoint" />
            <mxPoint x="560" y="230" as="targetPoint" />
          </mxGeometry>
        </mxCell>
        <mxCell id="timeline_flow_3" value="" style="endArrow=classic;html=1;rounded=0;exitX=1;exitY=0.5;exitDx=0;exitDy=0;entryX=0;entryY=0.5;entryDx=0;entryDy=0;dashed=1;" edge="1" parent="timeline_lane" source="milestone_3" target="milestone_4">
          <mxGeometry width="50" height="50" relative="1" as="geometry">
            <mxPoint x="510" y="280" as="sourcePoint" />
            <mxPoint x="560" y="230" as="targetPoint" />
          </mxGeometry>
        </mxCell>
        <mxCell id="timeline_flow_4" value="" style="endArrow=classic;html=1;rounded=0;exitX=1;exitY=0.5;exitDx=0;exitDy=0;entryX=0;entryY=0.5;entryDx=0;entryDy=0;dashed=1;" edge="1" parent="timeline_lane" source="milestone_4" target="milestone_5">
          <mxGeometry width="50" height="50" relative="1" as="geometry">
            <mxPoint x="510" y="280" as="sourcePoint" />
            <mxPoint x="560" y="230" as="targetPoint" />
          </mxGeometry>
        </mxCell>
        <mxCell id="timeline_flow_5" value="" style="endArrow=classic;html=1;rounded=0;exitX=1;exitY=0.5;exitDx=0;exitDy=0;entryX=0;entryY=0.5;entryDx=0;entryDy=0;dashed=1;" edge="1" parent="timeline_lane" source="milestone_5" target="milestone_6">
          <mxGeometry width="50" height="50" relative="1" as="geometry">
            <mxPoint x="510" y="280" as="sourcePoint" />
            <mxPoint x="560" y="230" as="targetPoint" />
          </mxGeometry>
        </mxCell>
      </root>
    </mxGraphModel>
  </diagram>
</mxfile>